{
  "seasons": [
    {
      "air_date": "2022-11-17",
      "episode_count": 8,
      "id": 126785,
      "name": "Staffel 1",
      "overview": "Die Serie folgt einer Gruppe europäischer Auswanderer, die im Jahr 1899 mit dem Schiff „Kerberos“ von London nach New York aufbrechen, um in den USA ein besseres Leben zu finden. Auf dieser Reise stoßen sie auf ein weiteres, seit Monaten vermisstes und manövrierunfähiges Schiff, das ihre Reise in einen Albtraum verwandeln wird.",
      "season_number": 1,
      "cover": "https://image.tmdb.org/t/p/w600_and_h900_bestv2/8rRBR7NwRftoOCqpxRibLjiwQNF.jpg",
      "cover_big": "https://image.tmdb.org/t/p/w600_and_h900_bestv2/8rRBR7NwRftoOCqpxRibLjiwQNF.jpg"
    }
  ],
  "info": {
    "name": "1899",
    "cover": "https://image.tmdb.org/t/p/w600_and_h900_bestv2/2QK8tIXafyiz93PvAbKxxfK2BLb.jpg",
    "plot": "Auswanderer aus Europa treffen auf der Reise in die neue Welt auf ein dahintreibendes weiteres Schiff auf offener See mit einem albtraumhaften Rätsel.",
    "cast": "Emily Beecham, Aneurin Barnard, Andreas Pietschmann, Miguel Bernardeau, Maciej Musiał",
    "director": "",
    "genre": "Mystery, Drama",
    "releaseDate": "2022-11-17",
    "last_modified": "1685447913",
    "rating": "8",
    "rating_5based": 4,
    "backdrop_path": [
      "https://image.tmdb.org/t/p/w1280/s1xnjbOIQtwGObPnydTebp74G2c.jpg"
    ],
    "youtube_trailer": "I82-PXjqols",
    "episode_run_time": "50",
    "category_id": "179"
  },
  "episodes": {
    "1": [
      {
        "id": "396757",
        "episode_num": 1,
        "title": "1899 - S01E01 - Das Schiff",
        "container_extension": "mp4",
        "info": {
          "tmdb_id": 1837500,
          "releasedate": "2022-11-17",
          "plot": "Maura hilft einer schwangeren Frau. Als der Kapitän Morsezeichen von einem vermissten Schiff empfängt, trifft er eine mutige Entscheidung – und macht eine unglaubliche Entdeckung.",
          "duration_secs": 3602,
          "duration": "01:00:02",
          "movie_image": "https://image.tmdb.org/t/p/w600_and_h900_bestv2/zD6kDb2a9DsgAmFH1QIEAusBoBE.jpg",
          "video": {
            "index": 0,
            "codec_name": "h264",
            "codec_long_name": "H.264 / AVC / MPEG-4 AVC / MPEG-4 part 10",
            "profile": "Main",
            "codec_type": "video",
            "codec_tag_string": "[27][0][0][0]",
            "codec_tag": "0x001b",
            "width": 1280,
            "height": 544,
            "coded_width": 1280,
            "coded_height": 544,
            "closed_captions": 0,
            "film_grain": 0,
            "has_b_frames": 2,
            "sample_aspect_ratio": "1:1",
            "display_aspect_ratio": "40:17",
            "pix_fmt": "yuv420p",
            "level": 31,
            "color_range": "tv",
            "color_space": "bt709",
            "color_transfer": "bt709",
            "color_primaries": "bt709",
            "chroma_location": "left",
            "field_order": "progressive",
            "refs": 1,
            "is_avc": "false",
            "nal_length_size": "0",
            "id": "0x100",
            "r_frame_rate": "24/1",
            "avg_frame_rate": "24/1",
            "time_base": "1/90000",
            "start_pts": 16590,
            "start_time": "0.184333",
            "duration_ts": 324236250,
            "duration": "3602.625000",
            "bits_per_raw_sample": "8",
            "extradata_size": 41,
            "disposition": {
              "default": 0,
              "dub": 0,
              "original": 0,
              "comment": 0,
              "lyrics": 0,
              "karaoke": 0,
              "forced": 0,
              "hearing_impaired": 0,
              "visual_impaired": 0,
              "clean_effects": 0,
              "attached_pic": 0,
              "timed_thumbnails": 0,
              "captions": 0,
              "descriptions": 0,
              "metadata": 0,
              "dependent": 0,
              "still_image": 0
            }
          },
          "audio": {
            "index": 1,
            "codec_name": "aac",
            "codec_long_name": "AAC (Advanced Audio Coding)",
            "profile": "LC",
            "codec_type": "audio",
            "codec_tag_string": "[15][0][0][0]",
            "codec_tag": "0x000f",
            "sample_fmt": "fltp",
            "sample_rate": "48000",
            "channels": 2,
            "channel_layout": "stereo",
            "bits_per_sample": 0,
            "initial_padding": 0,
            "id": "0x101",
            "r_frame_rate": "0/0",
            "avg_frame_rate": "0/0",
            "time_base": "1/90000",
            "start_pts": 9090,
            "start_time": "0.101000",
            "duration_ts": 324168960,
            "duration": "3601.877333",
            "bit_rate": "116962",
            "disposition": {
              "default": 0,
              "dub": 0,
              "original": 0,
              "comment": 0,
              "lyrics": 0,
              "karaoke": 0,
              "forced": 0,
              "hearing_impaired": 0,
              "visual_impaired": 0,
              "clean_effects": 0,
              "attached_pic": 0,
              "timed_thumbnails": 0,
              "captions": 0,
              "descriptions": 0,
              "metadata": 0,
              "dependent": 0,
              "still_image": 0
            }
          },
          "bitrate": 1400,
          "rating": 7.744,
          "season": "1"
        },
        "custom_sid": "",
        "added": "1685447912",
        "season": 1,
        "direct_source": ""
      },
      {
        "id": "396758",
        "episode_num": 2,
        "title": "1899 - S01E02 - Der Junge",
        "container_extension": "mp4",
        "info": {
          "tmdb_id": 3915209,
          "releasedate": "2022-11-17",
          "plot": "Der Kapitän hat Flashbacks, die er sich nicht erklären kann. Ein Mann folgt Maura zu ihrer Kabine, wo sich ein Junge versteckt, und ein Käfer führt zu einer Tragödie an Deck.",
          "duration_secs": 3490,
          "duration": "00:58:10",
          "movie_image": "https://image.tmdb.org/t/p/w600_and_h900_bestv2/dmjMR2eykpUTPiJdZyhOsg5QwPW.jpg",
          "video": {
            "index": 0,
            "codec_name": "h264",
            "codec_long_name": "H.264 / AVC / MPEG-4 AVC / MPEG-4 part 10",
            "profile": "Main",
            "codec_type": "video",
            "codec_tag_string": "[27][0][0][0]",
            "codec_tag": "0x001b",
            "width": 1272,
            "height": 544,
            "coded_width": 1272,
            "coded_height": 544,
            "closed_captions": 0,
            "film_grain": 0,
            "has_b_frames": 2,
            "sample_aspect_ratio": "1:1",
            "display_aspect_ratio": "159:68",
            "pix_fmt": "yuv420p",
            "level": 31,
            "color_range": "tv",
            "color_space": "bt709",
            "color_transfer": "bt709",
            "color_primaries": "bt709",
            "chroma_location": "left",
            "field_order": "progressive",
            "refs": 1,
            "is_avc": "false",
            "nal_length_size": "0",
            "id": "0x100",
            "r_frame_rate": "24/1",
            "avg_frame_rate": "24/1",
            "time_base": "1/90000",
            "start_pts": 16590,
            "start_time": "0.184333",
            "duration_ts": 314156250,
            "duration": "3490.625000",
            "bits_per_raw_sample": "8",
            "extradata_size": 42,
            "disposition": {
              "default": 0,
              "dub": 0,
              "original": 0,
              "comment": 0,
              "lyrics": 0,
              "karaoke": 0,
              "forced": 0,
              "hearing_impaired": 0,
              "visual_impaired": 0,
              "clean_effects": 0,
              "attached_pic": 0,
              "timed_thumbnails": 0,
              "captions": 0,
              "descriptions": 0,
              "metadata": 0,
              "dependent": 0,
              "still_image": 0
            }
          },
          "audio": {
            "index": 1,
            "codec_name": "aac",
            "codec_long_name": "AAC (Advanced Audio Coding)",
            "profile": "LC",
            "codec_type": "audio",
            "codec_tag_string": "[15][0][0][0]",
            "codec_tag": "0x000f",
            "sample_fmt": "fltp",
            "sample_rate": "48000",
            "channels": 2,
            "channel_layout": "stereo",
            "bits_per_sample": 0,
            "initial_padding": 0,
            "id": "0x101",
            "r_frame_rate": "0/0",
            "avg_frame_rate": "0/0",
            "time_base": "1/90000",
            "start_pts": 9090,
            "start_time": "0.101000",
            "duration_ts": 314138880,
            "duration": "3490.432000",
            "bit_rate": "116962",
            "disposition": {
              "default": 0,
              "dub": 0,
              "original": 0,
              "comment": 0,
              "lyrics": 0,
              "karaoke": 0,
              "forced": 0,
              "hearing_impaired": 0,
              "visual_impaired": 0,
              "clean_effects": 0,
              "attached_pic": 0,
              "timed_thumbnails": 0,
              "captions": 0,
              "descriptions": 0,
              "metadata": 0,
              "dependent": 0,
              "still_image": 0
            }
          },
          "bitrate": 1399,
          "rating": 7.3,
          "season": "1"
        },
        "custom_sid": "",
        "added": "1685447912",
        "season": 1,
        "direct_source": ""
      },
      {
        "id": "396759",
        "episode_num": 3,
        "title": "1899 - S01E03 - Der Nebel",
        "container_extension": "mp4",
        "info": {
          "tmdb_id": 3915210,
          "releasedate": "2022-11-17",
          "plot": "Ein Mädchen und weitere Passagiere ereilt ein schreckliches Schicksal. Olek entdeckt Ling Yi in einer Kiste, und das Vertrauen des Kapitäns in Maura wird auf die Probe gestellt.",
          "duration_secs": 3728,
          "duration": "01:02:08",
          "movie_image": "https://image.tmdb.org/t/p/w600_and_h900_bestv2/5plgzskoTkXC1kuHb5Neehh3GZY.jpg",
          "video": {
            "index": 0,
            "codec_name": "h264",
            "codec_long_name": "H.264 / AVC / MPEG-4 AVC / MPEG-4 part 10",
            "profile": "Main",
            "codec_type": "video",
            "codec_tag_string": "[27][0][0][0]",
            "codec_tag": "0x001b",
            "width": 1274,
            "height": 544,
            "coded_width": 1274,
            "coded_height": 544,
            "closed_captions": 0,
            "film_grain": 0,
            "has_b_frames": 2,
            "sample_aspect_ratio": "1:1",
            "display_aspect_ratio": "637:272",
            "pix_fmt": "yuv420p",
            "level": 31,
            "color_range": "tv",
            "color_space": "bt709",
            "color_transfer": "bt709",
            "color_primaries": "bt709",
            "chroma_location": "left",
            "field_order": "progressive",
            "refs": 1,
            "is_avc": "false",
            "nal_length_size": "0",
            "id": "0x100",
            "r_frame_rate": "24/1",
            "avg_frame_rate": "24/1",
            "time_base": "1/90000",
            "start_pts": 16590,
            "start_time": "0.184333",
            "duration_ts": 335576250,
            "duration": "3728.625000",
            "bits_per_raw_sample": "8",
            "extradata_size": 42,
            "disposition": {
              "default": 0,
              "dub": 0,
              "original": 0,
              "comment": 0,
              "lyrics": 0,
              "karaoke": 0,
              "forced": 0,
              "hearing_impaired": 0,
              "visual_impaired": 0,
              "clean_effects": 0,
              "attached_pic": 0,
              "timed_thumbnails": 0,
              "captions": 0,
              "descriptions": 0,
              "metadata": 0,
              "dependent": 0,
              "still_image": 0
            }
          },
          "audio": {
            "index": 1,
            "codec_name": "aac",
            "codec_long_name": "AAC (Advanced Audio Coding)",
            "profile": "LC",
            "codec_type": "audio",
            "codec_tag_string": "[15][0][0][0]",
            "codec_tag": "0x000f",
            "sample_fmt": "fltp",
            "sample_rate": "48000",
            "channels": 2,
            "channel_layout": "stereo",
            "bits_per_sample": 0,
            "initial_padding": 0,
            "id": "0x101",
            "r_frame_rate": "0/0",
            "avg_frame_rate": "0/0",
            "time_base": "1/90000",
            "start_pts": 9090,
            "start_time": "0.101000",
            "duration_ts": 335544960,
            "duration": "3728.277333",
            "bit_rate": "116962",
            "disposition": {
              "default": 0,
              "dub": 0,
              "original": 0,
              "comment": 0,
              "lyrics": 0,
              "karaoke": 0,
              "forced": 0,
              "hearing_impaired": 0,
              "visual_impaired": 0,
              "clean_effects": 0,
              "attached_pic": 0,
              "timed_thumbnails": 0,
              "captions": 0,
              "descriptions": 0,
              "metadata": 0,
              "dependent": 0,
              "still_image": 0
            }
          },
          "bitrate": 1400,
          "rating": 7.6,
          "season": "1"
        },
        "custom_sid": "",
        "added": "1685447912",
        "season": 1,
        "direct_source": ""
      },
      {
        "id": "396760",
        "episode_num": 4,
        "title": "1899 - S01E04 - Der Kampf",
        "container_extension": "mp4",
        "info": {
          "tmdb_id": 3915212,
          "releasedate": "2022-11-17",
          "plot": "Mehrere Crewmitglieder und Passagiere schließen den Kapitän, Olek, Jérôme und Ramiro ein und durchsuchen das Schiff nach dem Jungen. Kresters Geheimnis kommt ans Licht.",
          "duration_secs": 3048,
          "duration": "00:50:48",
          "movie_image": "https://image.tmdb.org/t/p/w600_and_h900_bestv2/5MxggMuXKRaKllf6dLQy7z0gmEe.jpg",
          "video": {
            "index": 0,
            "codec_name": "h264",
            "codec_long_name": "H.264 / AVC / MPEG-4 AVC / MPEG-4 part 10",
            "profile": "Main",
            "codec_type": "video",
            "codec_tag_string": "[27][0][0][0]",
            "codec_tag": "0x001b",
            "width": 1268,
            "height": 544,
            "coded_width": 1268,
            "coded_height": 544,
            "closed_captions": 0,
            "film_grain": 0,
            "has_b_frames": 2,
            "sample_aspect_ratio": "1:1",
            "display_aspect_ratio": "317:136",
            "pix_fmt": "yuv420p",
            "level": 31,
            "color_range": "tv",
            "color_space": "bt709",
            "color_transfer": "bt709",
            "color_primaries": "bt709",
            "chroma_location": "left",
            "field_order": "progressive",
            "refs": 1,
            "is_avc": "false",
            "nal_length_size": "0",
            "id": "0x100",
            "r_frame_rate": "24/1",
            "avg_frame_rate": "24/1",
            "time_base": "1/90000",
            "start_pts": 16590,
            "start_time": "0.184333",
            "duration_ts": 274376250,
            "duration": "3048.625000",
            "bits_per_raw_sample": "8",
            "extradata_size": 42,
            "disposition": {
              "default": 0,
              "dub": 0,
              "original": 0,
              "comment": 0,
              "lyrics": 0,
              "karaoke": 0,
              "forced": 0,
              "hearing_impaired": 0,
              "visual_impaired": 0,
              "clean_effects": 0,
              "attached_pic": 0,
              "timed_thumbnails": 0,
              "captions": 0,
              "descriptions": 0,
              "metadata": 0,
              "dependent": 0,
              "still_image": 0
            }
          },
          "audio": {
            "index": 1,
            "codec_name": "aac",
            "codec_long_name": "AAC (Advanced Audio Coding)",
            "profile": "LC",
            "codec_type": "audio",
            "codec_tag_string": "[15][0][0][0]",
            "codec_tag": "0x000f",
            "sample_fmt": "fltp",
            "sample_rate": "48000",
            "channels": 2,
            "channel_layout": "stereo",
            "bits_per_sample": 0,
            "initial_padding": 0,
            "id": "0x101",
            "r_frame_rate": "0/0",
            "avg_frame_rate": "0/0",
            "time_base": "1/90000",
            "start_pts": 9090,
            "start_time": "0.101000",
            "duration_ts": 274364160,
            "duration": "3048.490667",
            "bit_rate": "116962",
            "disposition": {
              "default": 0,
              "dub": 0,
              "original": 0,
              "comment": 0,
              "lyrics": 0,
              "karaoke": 0,
              "forced": 0,
              "hearing_impaired": 0,
              "visual_impaired": 0,
              "clean_effects": 0,
              "attached_pic": 0,
              "timed_thumbnails": 0,
              "captions": 0,
              "descriptions": 0,
              "metadata": 0,
              "dependent": 0,
              "still_image": 0
            }
          },
          "bitrate": 1399,
          "rating": 7.9,
          "season": "1"
        },
        "custom_sid": "",
        "added": "1685447912",
        "season": 1,
        "direct_source": ""
      },
      {
        "id": "396761",
        "episode_num": 5,
        "title": "1899 - S01E05 - Der Ruf",
        "container_extension": "mp4",
        "info": {
          "tmdb_id": 3915213,
          "releasedate": "2022-11-17",
          "plot": "Maura wird von Flashbacks geplagt und macht einen gewagten Schritt. Ein Geräusch bringt einige Passagiere dazu, über Bord zu springen. Maura macht eine Entdeckung über ihren Vater.",
          "duration_secs": 3002,
          "duration": "00:50:02",
          "movie_image": "https://image.tmdb.org/t/p/w600_and_h900_bestv2/dB7UMBHWOSXVMJDTknZI5Veyb8s.jpg",
          "video": {
            "index": 0,
            "codec_name": "h264",
            "codec_long_name": "H.264 / AVC / MPEG-4 AVC / MPEG-4 part 10",
            "profile": "Main",
            "codec_type": "video",
            "codec_tag_string": "[27][0][0][0]",
            "codec_tag": "0x001b",
            "width": 1280,
            "height": 544,
            "coded_width": 1280,
            "coded_height": 544,
            "closed_captions": 0,
            "film_grain": 0,
            "has_b_frames": 2,
            "sample_aspect_ratio": "1:1",
            "display_aspect_ratio": "40:17",
            "pix_fmt": "yuv420p",
            "level": 31,
            "color_range": "tv",
            "color_space": "bt709",
            "color_transfer": "bt709",
            "color_primaries": "bt709",
            "chroma_location": "left",
            "field_order": "progressive",
            "refs": 1,
            "is_avc": "false",
            "nal_length_size": "0",
            "id": "0x100",
            "r_frame_rate": "24/1",
            "avg_frame_rate": "24/1",
            "time_base": "1/90000",
            "start_pts": 16590,
            "start_time": "0.184333",
            "duration_ts": 270236250,
            "duration": "3002.625000",
            "bits_per_raw_sample": "8",
            "extradata_size": 41,
            "disposition": {
              "default": 0,
              "dub": 0,
              "original": 0,
              "comment": 0,
              "lyrics": 0,
              "karaoke": 0,
              "forced": 0,
              "hearing_impaired": 0,
              "visual_impaired": 0,
              "clean_effects": 0,
              "attached_pic": 0,
              "timed_thumbnails": 0,
              "captions": 0,
              "descriptions": 0,
              "metadata": 0,
              "dependent": 0,
              "still_image": 0
            }
          },
          "audio": {
            "index": 1,
            "codec_name": "aac",
            "codec_long_name": "AAC (Advanced Audio Coding)",
            "profile": "LC",
            "codec_type": "audio",
            "codec_tag_string": "[15][0][0][0]",
            "codec_tag": "0x000f",
            "sample_fmt": "fltp",
            "sample_rate": "48000",
            "channels": 2,
            "channel_layout": "stereo",
            "bits_per_sample": 0,
            "initial_padding": 0,
            "id": "0x101",
            "r_frame_rate": "0/0",
            "avg_frame_rate": "0/0",
            "time_base": "1/90000",
            "start_pts": 9090,
            "start_time": "0.101000",
            "duration_ts": 270184320,
            "duration": "3002.048000",
            "bit_rate": "116962",
            "disposition": {
              "default": 0,
              "dub": 0,
              "original": 0,
              "comment": 0,
              "lyrics": 0,
              "karaoke": 0,
              "forced": 0,
              "hearing_impaired": 0,
              "visual_impaired": 0,
              "clean_effects": 0,
              "attached_pic": 0,
              "timed_thumbnails": 0,
              "captions": 0,
              "descriptions": 0,
              "metadata": 0,
              "dependent": 0,
              "still_image": 0
            }
          },
          "bitrate": 1399,
          "rating": 8.1,
          "season": "1"
        },
        "custom_sid": "",
        "added": "1685447912",
        "season": 1,
        "direct_source": ""
      },
      {
        "id": "396762",
        "episode_num": 6,
        "title": "1899 - S01E06 - Die Pyramide",
        "container_extension": "mp4",
        "info": {
          "tmdb_id": 3915215,
          "releasedate": "2022-11-17",
          "plot": "Von schrecklichen Erinnerungen eingeholt, will Tove den Jungen töten. Daniel folgt Maura und dem Kapitän an einen rätselhaften Ort. Mauras Vater erscheint mit einer Nachricht.",
          "duration_secs": 3242,
          "duration": "00:54:02",
          "movie_image": "https://image.tmdb.org/t/p/w600_and_h900_bestv2/ndXL88MxndvROXjiEdbdBAiHXg1.jpg",
          "video": {
            "index": 0,
            "codec_name": "h264",
            "codec_long_name": "H.264 / AVC / MPEG-4 AVC / MPEG-4 part 10",
            "profile": "Main",
            "codec_type": "video",
            "codec_tag_string": "[27][0][0][0]",
            "codec_tag": "0x001b",
            "width": 1174,
            "height": 544,
            "coded_width": 1174,
            "coded_height": 544,
            "closed_captions": 0,
            "film_grain": 0,
            "has_b_frames": 2,
            "sample_aspect_ratio": "1:1",
            "display_aspect_ratio": "587:272",
            "pix_fmt": "yuv420p",
            "level": 31,
            "color_range": "tv",
            "color_space": "bt709",
            "color_transfer": "bt709",
            "color_primaries": "bt709",
            "chroma_location": "left",
            "field_order": "progressive",
            "refs": 1,
            "is_avc": "false",
            "nal_length_size": "0",
            "id": "0x100",
            "r_frame_rate": "24/1",
            "avg_frame_rate": "24/1",
            "time_base": "1/90000",
            "start_pts": 16590,
            "start_time": "0.184333",
            "duration_ts": 291836250,
            "duration": "3242.625000",
            "bits_per_raw_sample": "8",
            "extradata_size": 42,
            "disposition": {
              "default": 0,
              "dub": 0,
              "original": 0,
              "comment": 0,
              "lyrics": 0,
              "karaoke": 0,
              "forced": 0,
              "hearing_impaired": 0,
              "visual_impaired": 0,
              "clean_effects": 0,
              "attached_pic": 0,
              "timed_thumbnails": 0,
              "captions": 0,
              "descriptions": 0,
              "metadata": 0,
              "dependent": 0,
              "still_image": 0
            }
          },
          "audio": {
            "index": 1,
            "codec_name": "aac",
            "codec_long_name": "AAC (Advanced Audio Coding)",
            "profile": "LC",
            "codec_type": "audio",
            "codec_tag_string": "[15][0][0][0]",
            "codec_tag": "0x000f",
            "sample_fmt": "fltp",
            "sample_rate": "48000",
            "channels": 2,
            "channel_layout": "stereo",
            "bits_per_sample": 0,
            "initial_padding": 0,
            "id": "0x101",
            "r_frame_rate": "0/0",
            "avg_frame_rate": "0/0",
            "time_base": "1/90000",
            "start_pts": 9090,
            "start_time": "0.101000",
            "duration_ts": 291782400,
            "duration": "3242.026667",
            "bit_rate": "116962",
            "disposition": {
              "default": 0,
              "dub": 0,
              "original": 0,
              "comment": 0,
              "lyrics": 0,
              "karaoke": 0,
              "forced": 0,
              "hearing_impaired": 0,
              "visual_impaired": 0,
              "clean_effects": 0,
              "attached_pic": 0,
              "timed_thumbnails": 0,
              "captions": 0,
              "descriptions": 0,
              "metadata": 0,
              "dependent": 0,
              "still_image": 0
            }
          },
          "bitrate": 1400,
          "rating": 7.9,
          "season": "1"
        },
        "custom_sid": "",
        "added": "1685447912",
        "season": 1,
        "direct_source": ""
      },
      {
        "id": "396763",
        "episode_num": 7,
        "title": "1899 - S01E07 - Der Sturm",
        "container_extension": "mp4",
        "info": {
          "tmdb_id": 3915216,
          "releasedate": "2022-11-17",
          "plot": "Daniel bittet Maura um etwas, das sie nicht versteht. Olek und Ling Yi übernehmen das Steuer, kurz bevor ein Unglück geschieht. Elliots Identität kommt ans Licht.",
          "duration_secs": 3212,
          "duration": "00:53:32",
          "movie_image": "https://image.tmdb.org/t/p/w600_and_h900_bestv2/j3Evm7CxhaTxZAXkjm6Gj3ML2qr.jpg",
          "video": {
            "index": 0,
            "codec_name": "h264",
            "codec_long_name": "H.264 / AVC / MPEG-4 AVC / MPEG-4 part 10",
            "profile": "Main",
            "codec_type": "video",
            "codec_tag_string": "[27][0][0][0]",
            "codec_tag": "0x001b",
            "width": 1110,
            "height": 516,
            "coded_width": 1110,
            "coded_height": 516,
            "closed_captions": 0,
            "film_grain": 0,
            "has_b_frames": 2,
            "sample_aspect_ratio": "1:1",
            "display_aspect_ratio": "185:86",
            "pix_fmt": "yuv420p",
            "level": 31,
            "color_range": "tv",
            "color_space": "bt709",
            "color_transfer": "bt709",
            "color_primaries": "bt709",
            "chroma_location": "left",
            "field_order": "progressive",
            "refs": 1,
            "is_avc": "false",
            "nal_length_size": "0",
            "id": "0x100",
            "r_frame_rate": "24/1",
            "avg_frame_rate": "24/1",
            "time_base": "1/90000",
            "start_pts": 16590,
            "start_time": "0.184333",
            "duration_ts": 289136250,
            "duration": "3212.625000",
            "bits_per_raw_sample": "8",
            "extradata_size": 42,
            "disposition": {
              "default": 0,
              "dub": 0,
              "original": 0,
              "comment": 0,
              "lyrics": 0,
              "karaoke": 0,
              "forced": 0,
              "hearing_impaired": 0,
              "visual_impaired": 0,
              "clean_effects": 0,
              "attached_pic": 0,
              "timed_thumbnails": 0,
              "captions": 0,
              "descriptions": 0,
              "metadata": 0,
              "dependent": 0,
              "still_image": 0
            }
          },
          "audio": {
            "index": 1,
            "codec_name": "aac",
            "codec_long_name": "AAC (Advanced Audio Coding)",
            "profile": "LC",
            "codec_type": "audio",
            "codec_tag_string": "[15][0][0][0]",
            "codec_tag": "0x000f",
            "sample_fmt": "fltp",
            "sample_rate": "48000",
            "channels": 2,
            "channel_layout": "stereo",
            "bits_per_sample": 0,
            "initial_padding": 0,
            "id": "0x101",
            "r_frame_rate": "0/0",
            "avg_frame_rate": "0/0",
            "time_base": "1/90000",
            "start_pts": 9090,
            "start_time": "0.101000",
            "duration_ts": 289104000,
            "duration": "3212.266667",
            "bit_rate": "116962",
            "disposition": {
              "default": 0,
              "dub": 0,
              "original": 0,
              "comment": 0,
              "lyrics": 0,
              "karaoke": 0,
              "forced": 0,
              "hearing_impaired": 0,
              "visual_impaired": 0,
              "clean_effects": 0,
              "attached_pic": 0,
              "timed_thumbnails": 0,
              "captions": 0,
              "descriptions": 0,
              "metadata": 0,
              "dependent": 0,
              "still_image": 0
            }
          },
          "bitrate": 1400,
          "rating": 8.1,
          "season": "1"
        },
        "custom_sid": "",
        "added": "1685447912",
        "season": 1,
        "direct_source": ""
      },
      {
        "id": "396764",
        "episode_num": 8,
        "title": "1899 - S01E08 - Der Schlüssel",
        "container_extension": "mp4",
        "info": {
          "tmdb_id": 3915217,
          "releasedate": "2022-11-17",
          "plot": "Maura verkündet den Passagieren Unglaubliches, woraufhin sich ihre Erinnerungen vermischen. Daniel ändert einen Code und Maura findet sich plötzlich in einer neuen Realität wieder.",
          "duration_secs": 3024,
          "duration": "00:50:24",
          "movie_image": "https://image.tmdb.org/t/p/w600_and_h900_bestv2/4gdW382UCMOjMKlfYi9XzCpHHZY.jpg",
          "video": {
            "index": 0,
            "codec_name": "h264",
            "codec_long_name": "H.264 / AVC / MPEG-4 AVC / MPEG-4 part 10",
            "profile": "Main",
            "codec_type": "video",
            "codec_tag_string": "[27][0][0][0]",
            "codec_tag": "0x001b",
            "width": 1280,
            "height": 544,
            "coded_width": 1280,
            "coded_height": 544,
            "closed_captions": 0,
            "film_grain": 0,
            "has_b_frames": 2,
            "sample_aspect_ratio": "1:1",
            "display_aspect_ratio": "40:17",
            "pix_fmt": "yuv420p",
            "level": 31,
            "color_range": "tv",
            "color_space": "bt709",
            "color_transfer": "bt709",
            "color_primaries": "bt709",
            "chroma_location": "left",
            "field_order": "progressive",
            "refs": 1,
            "is_avc": "false",
            "nal_length_size": "0",
            "id": "0x100",
            "r_frame_rate": "24/1",
            "avg_frame_rate": "24/1",
            "time_base": "1/90000",
            "start_pts": 16590,
            "start_time": "0.184333",
            "duration_ts": 272216250,
            "duration": "3024.625000",
            "bits_per_raw_sample": "8",
            "extradata_size": 41,
            "disposition": {
              "default": 0,
              "dub": 0,
              "original": 0,
              "comment": 0,
              "lyrics": 0,
              "karaoke": 0,
              "forced": 0,
              "hearing_impaired": 0,
              "visual_impaired": 0,
              "clean_effects": 0,
              "attached_pic": 0,
              "timed_thumbnails": 0,
              "captions": 0,
              "descriptions": 0,
              "metadata": 0,
              "dependent": 0,
              "still_image": 0
            }
          },
          "audio": {
            "index": 1,
            "codec_name": "aac",
            "codec_long_name": "AAC (Advanced Audio Coding)",
            "profile": "LC",
            "codec_type": "audio",
            "codec_tag_string": "[15][0][0][0]",
            "codec_tag": "0x000f",
            "sample_fmt": "fltp",
            "sample_rate": "48000",
            "channels": 2,
            "channel_layout": "stereo",
            "bits_per_sample": 0,
            "initial_padding": 0,
            "id": "0x101",
            "r_frame_rate": "0/0",
            "avg_frame_rate": "0/0",
            "time_base": "1/90000",
            "start_pts": 9090,
            "start_time": "0.101000",
            "duration_ts": 272200320,
            "duration": "3024.448000",
            "bit_rate": "116962",
            "disposition": {
              "default": 0,
              "dub": 0,
              "original": 0,
              "comment": 0,
              "lyrics": 0,
              "karaoke": 0,
              "forced": 0,
              "hearing_impaired": 0,
              "visual_impaired": 0,
              "clean_effects": 0,
              "attached_pic": 0,
              "timed_thumbnails": 0,
              "captions": 0,
              "descriptions": 0,
              "metadata": 0,
              "dependent": 0,
              "still_image": 0
            }
          },
          "bitrate": 1400,
          "rating": 7.8,
          "season": "1"
        },
        "custom_sid": "",
        "added": "1685447912",
        "season": 1,
        "direct_source": ""
      }
    ]
  }
}